<svg xmlns="http://www.w3.org/2000/svg" viewBox="0 0 318.6 318.6">
  <path fill="#E2761B" d="M274.1,35.5l-99.5,73.9L193,51.6L274.1,35.5z"/>
  <path fill="#E4761B" d="M44.4,35.5l98.7,74.6l-17.5-58.3L44.4,35.5z"/>
  <path fill="#E4761B" d="M238.3,206.8l-26.5,40.6l56.7,15.6l16.3-55.3L238.3,206.8z"/>
  <path fill="#E4761B" d="M33.9,207.7L50.1,263l56.7-15.6l-26.5-40.6L33.9,207.7z"/>
  <path fill="#F6851B" d="M103.6,138.2l-15.8,23.9l56.3,2.5l-2-60.5L103.6,138.2z"/>
  <path fill="#F6851B" d="M214.9,138.2l-39-34.8l-1.3,61.2l56.2-2.5L214.9,138.2z"/>
  <path fill="#763D16" d="M106.8,247.4l33.8-16.5l-29.2-22.8L106.8,247.4z"/>
  <path fill="#763D16" d="M177.9,230.9l33.9,16.5l-4.7-39.3L177.9,230.9z"/>
</svg> 