<svg xmlns="http://www.w3.org/2000/svg" viewBox="0 0 90 90">
  <path fill="#2081E2" d="M45,0C20.2,0,0,20.2,0,45s20.2,45,45,45s45-20.2,45-45S69.8,0,45,0z M22.7,46.2l0.1-0.2l7.8-12.2 c0.1-0.2,0.4-0.2,0.5,0c1.5,3.3,2.7,7.3,2.1,9.8c-0.2,0.9-1,2.1-1.8,3.2c-0.1,0.2-0.2,0.3-0.4,0.5c-0.1,0.1-0.2,0.1-0.3,0.1H23 C22.8,47.4,22.6,46.8,22.7,46.2z M75,51.2c0,0.3-0.2,0.6-0.5,0.7c-1.7,0.7-7.6,3.5-10.1,7c-6.3,8.7-11.1,16.9-21.9,16.9 c-11.3,0-20.5-9.2-20.5-20.5c0-0.3,0.2-0.5,0.5-0.5h8.9c0.3,0,0.6,0.3,0.6,0.6c0.1,1.5,0.7,2.9,1.7,4c1.7,1.9,4.1,2.9,6.6,2.9h10.4 v-8.1H40.3c-0.4,0-0.6-0.4-0.4-0.7l0.9-1.5c0.6-1,1.5-2.3,2.5-3.5c1.1-1.4,2.3-2.6,3.4-3.7c0.2-0.2,0.4-0.4,0.6-0.5 c0.3-0.3,0.6-0.5,0.8-0.7c0.2-0.2,0.4-0.3,0.6-0.5c0.4-0.3,0.7-0.5,1-0.7c0.2-0.1,0.3-0.2,0.4-0.3c0.4-0.3,0.8-0.5,1.1-0.6 c0.2-0.1,0.3-0.2,0.5-0.2c0.3-0.2,0.7-0.3,1-0.4c0.1,0,0.2-0.1,0.3-0.1c0.5-0.2,1-0.3,1.5-0.4c0.1,0,0.1,0,0.2,0 c0.4-0.1,0.9-0.1,1.3-0.1c0.1,0,0.2,0,0.3,0c0.4,0,0.9,0,1.3,0.1c0.1,0,0.2,0,0.3,0.1c0.5,0.1,0.9,0.2,1.4,0.3 c0.1,0,0.2,0.1,0.3,0.1c0.4,0.1,0.8,0.3,1.1,0.4c0.1,0.1,0.3,0.1,0.4,0.2c0.4,0.2,0.7,0.4,1.1,0.6c0.1,0,0.1,0.1,0.2,0.1 c0.1,0.1,0.2,0.1,0.3,0.2l1.2,0.8c0.1,0.1,0.2,0.1,0.3,0.2l1.2,1c0.1,0.1,0.2,0.2,0.3,0.3c0.3,0.3,0.6,0.6,0.9,0.9 c0.1,0.1,0.2,0.2,0.3,0.3c0.3,0.3,0.6,0.7,0.9,1c0,0.1,0.1,0.1,0.1,0.2c0.3,0.4,0.6,0.8,0.9,1.2c0,0.1,0.1,0.1,0.1,0.2 c0.3,0.4,0.5,0.8,0.7,1.2c0,0.1,0.1,0.1,0.1,0.2c0.2,0.4,0.4,0.8,0.6,1.3c0,0,0,0.1,0,0.1c0.2,0.4,0.3,0.9,0.4,1.3 c0,0.1,0,0.1,0,0.2c0.1,0.4,0.2,0.9,0.2,1.3c0,0.1,0,0.2,0,0.3c0,0.4,0.1,0.9,0.1,1.3V51.2z"/>
</svg> 